#N canvas 258 81 1438 998 10;
#X obj 88 210 readsf~;
#X msg 100 165 1, f 5;
#X floatatom 722 381 5 0 0 0 - - -, f 5;
#X obj 787 417 dac~ 1 2;
#X msg 88 133 open Loop1.aiff;
#X obj 208 210 readsf~;
#X msg 220 165 1, f 5;
#X msg 208 133 open Loop2.aiff;
#X obj 331 210 readsf~;
#X msg 343 165 1, f 5;
#X obj 451 210 readsf~;
#X msg 463 165 1, f 5;
#X msg 331 133 open Loop3.aiff;
#X msg 451 133 open Loop4.aiff;
#X obj 100 85 select 0;
#X obj 100 111 bng 15 250 50 0 empty empty empty 17 7 0 10 -262144
-1 -1;
#X obj 220 111 bng 15 250 50 0 empty empty empty 17 7 0 10 -262144
-1 -1;
#X obj 343 111 bng 15 250 50 0 empty empty empty 17 7 0 10 -262144
-1 -1;
#X obj 463 111 bng 15 250 50 0 empty empty empty 17 7 0 10 -262144
-1 -1;
#X obj 284 9 bng 15 250 50 0 empty empty empty 17 7 0 10 -262144 -1
-1;
#X obj 220 85 select 1;
#X obj 343 85 select 2;
#X obj 463 85 select 3;
#X obj 149 15 loadbang;
#X obj 724 217 readsf~;
#X msg 736 172 1, f 5;
#X floatatom 727 289 5 0 0 0 - - -, f 5;
#X obj 903 217 readsf~;
#X msg 915 172 1, f 5;
#X obj 1218 158 readsf~;
#X msg 1230 113 1, f 5;
#X obj 736 92 select 0;
#X obj 736 118 bng 15 250 50 0 empty empty empty 17 7 0 10 -262144
-1 -1;
#X obj 915 118 bng 15 250 50 0 empty empty empty 17 7 0 10 -262144
-1 -1;
#X obj 1273 52 bng 15 250 50 0 empty empty empty 17 7 0 10 -262144
-1 -1;
#X obj 920 16 bng 15 250 50 0 empty empty empty 17 7 0 10 -262144 -1
-1;
#X obj 915 92 select 1;
#X obj 984 22 loadbang;
#X msg 1218 81 open claire_l.wav;
#X msg 724 140 open claire2-1.1.wav;
#X msg 903 140 open claire2-4.1.wav;
#X obj 1297 182 t b b;
#X obj 920 39 random 2;
#X obj 671 374 *~ 1;
#X obj 728 323 *~ 1;
#X floatatom 1276 246 5 0 0 0 - - -, f 5;
#X obj 1214 266 *~ 1;
#X obj 88 402 readsf~;
#X msg 100 357 1, f 5;
#X obj 208 402 readsf~;
#X msg 220 357 1, f 5;
#X obj 331 402 readsf~;
#X msg 343 357 1, f 5;
#X obj 451 402 readsf~;
#X msg 463 357 1, f 5;
#X obj 100 303 bng 15 250 50 0 empty empty empty 17 7 0 10 -262144
-1 -1;
#X obj 220 303 bng 15 250 50 0 empty empty empty 17 7 0 10 -262144
-1 -1;
#X obj 343 303 bng 15 250 50 0 empty empty empty 17 7 0 10 -262144
-1 -1;
#X obj 463 303 bng 15 250 50 0 empty empty empty 17 7 0 10 -262144
-1 -1;
#X obj 88 599 readsf~;
#X msg 100 554 1, f 5;
#X obj 208 599 readsf~;
#X msg 220 554 1, f 5;
#X obj 331 599 readsf~;
#X msg 343 554 1, f 5;
#X obj 451 599 readsf~;
#X msg 463 554 1, f 5;
#X obj 100 500 bng 15 250 50 0 empty empty empty 17 7 0 10 -262144
-1 -1;
#X obj 220 500 bng 15 250 50 0 empty empty empty 17 7 0 10 -262144
-1 -1;
#X obj 343 500 bng 15 250 50 0 empty empty empty 17 7 0 10 -262144
-1 -1;
#X obj 463 500 bng 15 250 50 0 empty empty empty 17 7 0 10 -262144
-1 -1;
#X obj 88 791 readsf~;
#X msg 100 746 1, f 5;
#X obj 208 791 readsf~;
#X msg 220 746 1, f 5;
#X obj 331 791 readsf~;
#X msg 343 746 1, f 5;
#X obj 460 787 readsf~;
#X msg 463 746 1, f 5;
#X obj 100 692 bng 15 250 50 0 empty empty empty 17 7 0 10 -262144
-1 -1;
#X obj 220 692 bng 15 250 50 0 empty empty empty 17 7 0 10 -262144
-1 -1;
#X obj 343 692 bng 15 250 50 0 empty empty empty 17 7 0 10 -262144
-1 -1;
#X obj 463 692 bng 15 250 50 0 empty empty empty 17 7 0 10 -262144
-1 -1;
#X obj 100 277 select 4;
#X obj 220 277 select 5;
#X obj 343 277 select 6;
#X obj 463 277 select 7;
#X obj 100 474 select 8;
#X obj 220 474 select 9;
#X obj 343 473 select 10;
#X obj 463 474 select 11;
#X obj 100 666 select 12;
#X obj 220 666 select 13;
#X obj 345 666 select 14;
#X msg 88 325 open Loop5.aiff;
#X msg 208 325 open Loop6.aiff;
#X msg 331 325 open Loop7.aiff;
#X msg 451 325 open Loop8.aiff;
#X msg 87 522 open Loop9.aiff;
#X msg 208 522 open Loop10.aiff;
#X msg 331 522 open Loop11.aiff;
#X msg 451 522 open Loop12.aiff;
#X msg 88 714 open Loop13.aiff;
#X msg 208 714 open Loop14.aiff;
#X msg 450 714 open Loop17.aiff;
#X msg 330 714 open Loop16.aiff;
#X obj 88 968 readsf~;
#X msg 100 923 1, f 5;
#X obj 208 968 readsf~;
#X msg 220 923 1, f 5;
#X obj 331 968 readsf~;
#X msg 343 923 1, f 5;
#X obj 451 968 readsf~;
#X msg 463 923 1, f 5;
#X obj 100 869 bng 15 250 50 0 empty empty empty 17 7 0 10 -262144
-1 -1;
#X obj 220 869 bng 15 250 50 0 empty empty empty 17 7 0 10 -262144
-1 -1;
#X obj 343 869 bng 15 250 50 0 empty empty empty 17 7 0 10 -262144
-1 -1;
#X obj 463 869 bng 15 250 50 0 empty empty empty 17 7 0 10 -262144
-1 -1;
#X obj 463 666 select 16;
#X obj 100 843 select 17;
#X obj 220 843 select 18;
#X obj 345 842 select 19;
#X obj 463 843 select 20;
#X obj 578 968 readsf~;
#X msg 590 923 1, f 5;
#X obj 590 869 bng 15 250 50 0 empty empty empty 17 7 0 10 -262144
-1 -1;
#X obj 592 842 select 21;
#X msg 88 891 open Loop18.aiff;
#X msg 207 891 open Loop19.aiff;
#X msg 330 891 open Loop20.aiff;
#X msg 450 891 open Loop21.aiff;
#X msg 576 891 open Loop22.aiff;
#X obj 284 32 random 22;
#X obj 577 51 loadbang;
#X obj 577 86 bng 15 250 50 0 empty empty empty 17 7 0 10 -262144 -1
-1;
#X obj 393 14 delay 15000;
#X msg 662 36 \; pd dsp 1 \;;
#X connect 0 0 43 0;
#X connect 0 1 4 0;
#X connect 0 1 19 0;
#X connect 1 0 0 0;
#X connect 2 0 43 1;
#X connect 4 0 0 0;
#X connect 5 0 43 0;
#X connect 5 1 7 0;
#X connect 5 1 19 0;
#X connect 6 0 5 0;
#X connect 7 0 5 0;
#X connect 8 0 43 0;
#X connect 8 1 12 0;
#X connect 8 1 19 0;
#X connect 9 0 8 0;
#X connect 10 0 43 0;
#X connect 10 1 13 0;
#X connect 10 1 19 0;
#X connect 11 0 10 0;
#X connect 12 0 8 0;
#X connect 13 0 10 0;
#X connect 14 0 15 0;
#X connect 15 0 1 0;
#X connect 16 0 6 0;
#X connect 17 0 9 0;
#X connect 18 0 11 0;
#X connect 19 0 132 0;
#X connect 20 0 16 0;
#X connect 21 0 17 0;
#X connect 22 0 18 0;
#X connect 23 0 4 0;
#X connect 23 0 7 0;
#X connect 23 0 12 0;
#X connect 23 0 13 0;
#X connect 23 0 94 0;
#X connect 23 0 95 0;
#X connect 23 0 96 0;
#X connect 23 0 97 0;
#X connect 23 0 98 0;
#X connect 23 0 99 0;
#X connect 23 0 100 0;
#X connect 23 0 101 0;
#X connect 23 0 102 0;
#X connect 23 0 103 0;
#X connect 23 0 105 0;
#X connect 23 0 104 0;
#X connect 23 0 127 0;
#X connect 23 0 128 0;
#X connect 23 0 129 0;
#X connect 23 0 130 0;
#X connect 23 0 131 0;
#X connect 24 0 44 0;
#X connect 24 1 39 0;
#X connect 24 1 35 0;
#X connect 25 0 24 0;
#X connect 26 0 44 1;
#X connect 27 0 44 0;
#X connect 27 1 40 0;
#X connect 27 1 35 0;
#X connect 28 0 27 0;
#X connect 29 0 46 0;
#X connect 29 1 41 0;
#X connect 30 0 29 0;
#X connect 31 0 32 0;
#X connect 32 0 25 0;
#X connect 33 0 28 0;
#X connect 34 0 30 0;
#X connect 35 0 42 0;
#X connect 36 0 33 0;
#X connect 37 0 39 0;
#X connect 37 0 40 0;
#X connect 37 0 38 0;
#X connect 38 0 29 0;
#X connect 39 0 24 0;
#X connect 40 0 27 0;
#X connect 41 0 34 0;
#X connect 41 1 38 0;
#X connect 42 0 31 0;
#X connect 42 0 36 0;
#X connect 43 0 3 0;
#X connect 43 0 3 1;
#X connect 44 0 3 1;
#X connect 45 0 46 1;
#X connect 46 0 3 0;
#X connect 47 0 43 0;
#X connect 47 1 94 0;
#X connect 47 1 19 0;
#X connect 48 0 47 0;
#X connect 49 0 43 0;
#X connect 49 1 95 0;
#X connect 49 1 19 0;
#X connect 50 0 49 0;
#X connect 51 0 43 0;
#X connect 51 1 96 0;
#X connect 51 1 19 0;
#X connect 52 0 51 0;
#X connect 53 0 43 0;
#X connect 53 1 97 0;
#X connect 53 1 19 0;
#X connect 54 0 53 0;
#X connect 55 0 48 0;
#X connect 56 0 50 0;
#X connect 57 0 52 0;
#X connect 58 0 54 0;
#X connect 59 0 43 0;
#X connect 59 1 98 0;
#X connect 59 1 19 0;
#X connect 60 0 59 0;
#X connect 61 0 43 0;
#X connect 61 1 99 0;
#X connect 61 1 19 0;
#X connect 62 0 61 0;
#X connect 63 0 43 0;
#X connect 63 1 100 0;
#X connect 63 1 19 0;
#X connect 64 0 63 0;
#X connect 65 0 43 0;
#X connect 65 1 101 0;
#X connect 65 1 19 0;
#X connect 66 0 65 0;
#X connect 67 0 60 0;
#X connect 68 0 62 0;
#X connect 69 0 64 0;
#X connect 70 0 66 0;
#X connect 71 0 43 0;
#X connect 71 1 102 0;
#X connect 71 1 19 0;
#X connect 72 0 71 0;
#X connect 73 0 43 0;
#X connect 73 1 103 0;
#X connect 73 1 19 0;
#X connect 74 0 73 0;
#X connect 75 0 43 0;
#X connect 75 1 105 0;
#X connect 75 1 19 0;
#X connect 76 0 75 0;
#X connect 77 0 43 0;
#X connect 77 1 104 0;
#X connect 77 1 19 0;
#X connect 78 0 77 0;
#X connect 79 0 72 0;
#X connect 80 0 74 0;
#X connect 81 0 76 0;
#X connect 82 0 78 0;
#X connect 83 0 55 0;
#X connect 84 0 56 0;
#X connect 85 0 57 0;
#X connect 86 0 58 0;
#X connect 87 0 67 0;
#X connect 88 0 68 0;
#X connect 89 0 69 0;
#X connect 90 0 70 0;
#X connect 91 0 79 0;
#X connect 92 0 80 0;
#X connect 93 0 81 0;
#X connect 94 0 47 0;
#X connect 95 0 49 0;
#X connect 96 0 51 0;
#X connect 97 0 53 0;
#X connect 98 0 59 0;
#X connect 99 0 61 0;
#X connect 100 0 63 0;
#X connect 101 0 65 0;
#X connect 102 0 71 0;
#X connect 103 0 73 0;
#X connect 104 0 77 0;
#X connect 105 0 75 0;
#X connect 106 0 43 0;
#X connect 106 1 127 0;
#X connect 106 1 19 0;
#X connect 107 0 106 0;
#X connect 108 0 43 0;
#X connect 108 1 128 0;
#X connect 108 1 19 0;
#X connect 109 0 108 0;
#X connect 110 0 43 0;
#X connect 110 1 129 0;
#X connect 110 1 19 0;
#X connect 111 0 110 0;
#X connect 112 0 43 0;
#X connect 112 1 130 0;
#X connect 112 1 19 0;
#X connect 113 0 112 0;
#X connect 114 0 107 0;
#X connect 115 0 109 0;
#X connect 116 0 111 0;
#X connect 117 0 113 0;
#X connect 118 0 82 0;
#X connect 119 0 114 0;
#X connect 120 0 115 0;
#X connect 121 0 116 0;
#X connect 122 0 117 0;
#X connect 123 0 43 0;
#X connect 123 1 131 0;
#X connect 123 1 19 0;
#X connect 124 0 123 0;
#X connect 125 0 124 0;
#X connect 126 0 125 0;
#X connect 127 0 106 0;
#X connect 128 0 108 0;
#X connect 129 0 110 0;
#X connect 130 0 112 0;
#X connect 131 0 123 0;
#X connect 132 0 14 0;
#X connect 132 0 20 0;
#X connect 132 0 21 0;
#X connect 132 0 22 0;
#X connect 132 0 83 0;
#X connect 132 0 84 0;
#X connect 132 0 85 0;
#X connect 132 0 86 0;
#X connect 132 0 87 0;
#X connect 132 0 88 0;
#X connect 132 0 89 0;
#X connect 132 0 90 0;
#X connect 132 0 91 0;
#X connect 132 0 92 0;
#X connect 132 0 93 0;
#X connect 132 0 118 0;
#X connect 132 0 119 0;
#X connect 132 0 120 0;
#X connect 132 0 121 0;
#X connect 132 0 122 0;
#X connect 132 0 126 0;
#X connect 133 0 134 0;
#X connect 133 0 136 0;
#X connect 134 0 35 0;
#X connect 134 0 34 0;
#X connect 134 0 135 0;
#X connect 135 0 19 0;
